<svg width="22" height="25" viewBox="0 0 22 25" fill="none" xmlns="http://www.w3.org/2000/svg">
<path d="M11.9018 1.00418L10.0686 1.00002C5.88925 0.990518 2.26041 4.27905 2.23161 8.26431V15.2714C2.23161 16.2273 2.10587 17.1617 1.56727 17.9572L1.20857 18.4868C0.66384 19.2912 1.24958 20.3687 2.23161 20.3687H19.7684C20.7504 20.3687 21.3362 19.2912 20.7914 18.4868L20.4328 17.9572C19.8942 17.1617 19.7684 16.2273 19.7684 15.2714V8.26431C19.7198 4.27886 16.0812 1.01368 11.9018 1.00418Z" stroke="#1A1A1A" stroke-width="2" stroke-linecap="round" stroke-linejoin="round"/>
<path d="M14.7505 20.3682C14.7505 22.3739 13.0716 23.9997 11.0005 23.9997C8.92934 23.9997 7.25046 22.3739 7.25046 20.3682" stroke="#1A1A1A" stroke-width="2" stroke-linecap="round" stroke-linejoin="round"/>
</svg>
